/* XPM */
static char * diamond_xpm[] = {
"32 32 20 1",
" 	c #B8945F",
".	c #C29D62",
"+	c #967441",
"@	c #AF8F55",
"#	c #9F844D",
"$	c #11727A",
"%	c #FFFFFF",
"&	c #D5FFF6",
"*	c #A1FBE8",
"=	c #7E6237",
"-	c #4AEDD9",
";	c #88F7E3",
">	c #145E53",
",	c #67502C",
"'	c #20C5B5",
")	c #1AD8CF",
"!	c #1AAAA7",
"~	c #1FBAAA",
"{	c #1C919A",
"]	c #2CE0D8",
" .   ............  ......... . +",
" @@@@@@@#+##@  @ @###@   @   @##",
"   @###++##@@##@@   @#####@@###+",
" @##@@@#+++##@    @@@@@@@     @#",
"@     @@@  @$$$$$$$$@  @@###@  +",
"   @####@@#$%%%%%%%&$+++#@@  @#+",
"###@@@@###$%%******%&$@@@@###@@+",
"=++=+==++$%**-----;&**>=,,,,=,,,",
"  . ##@ $%*-*-----;&--*>@ @#### ",
"@##@   $%*---*---**&---'>@   @@@",
" @@## $%**---*--***&&-)-'> @@@  ",
"#@    $%%*---******&*)))'>    @#",
"####@$%*%**-*%%%%%%&))))-'>##@@@",
"#@@@#$%*-%%*%*-----*&)--'!>@@###",
"###@$%%---*%*-----***!'''~!>####",
",,,=$%*---*%-----****{'''~!>==,,",
" .. $%*---*%----*****{'''~!>. @+",
". @@$%*---*%---*****-{'''~!>@###",
" @##$%*--&*%--*****--{'~~~!>@@#+",
"   @$%*&%%&)-*****--'{!!!!!>###+",
". @@$&%%----'-***--'{!!~~~!>@@@#",
"##@ $&---))]'!!!!!!!!!'''~!>  ##",
" @ @#$&-))]!~''''''~!~'''!>##@#+",
",,,==$&-))]!~''''''~!~'''!>,,,,,",
" @## .>-))]!~''''''~!~''*>  . ..",
"@  @@ >-)]!~''''''''~!''-> @@###",
"##@@@@ >-]!~''''''''~!'->@####@@",
" @@@  @#>]!~''''''''~!*>   @#@  ",
"@###@@@@@>{--*-**-**-{>###+++#@@",
"@@#++##@  >>>>>>>>>>>>@@#+##@@##",
"######@##@  @##+@   @##########+",
",====,,,,,,=++==+++=,,,=,,,,,,,,"};
