/* XPM */
static char *result[] = {
/* columns rows colors chars-per-pixel */
"32 32 8 1 ",
"  c #67502C",
". c #7E6237",
"X c #967441",
"o c yellow",
"O c #9F844D",
"+ c #AF8F55",
"@ c #B8945F",
"# c #C29D62",
/* pixels */
"@#@@@########oooooooo#######@#@X",
"@+++++++OXoooooooooooooo@+@@@+OO",
"@@@+OOOXoooooooooooooooooo++OOOX",
"@+OO+++oooooooooooooooooooo@@@+O",
"+@@@@@oooooooooooooooooooooo+@@X",
"@@@+Ooooooooooooooooooooooooo+OX",
"OOO+oooooooooooooooooooooooooo+X",
".XXoooooooooooooooooooooooooooo ",
"@@#oooooooooooooooooooooooooooo@",
"+Oooooooooooooooooooooooooooo+++",
"@+ooooooooooooooooooooooooo+++@@",
"O+ooooooooooooooooooooooo@@@@@+O",
"Oooooooooooooooooooooo++++OOO+++",
"Ooooooooooooooooooo+OXOO+++++OOO",
"OooooooooooooooooO+@@+++OOOOOOOO",
" oooooooooooooo     ...X.XXX..  ",
"@oooooooooooooo@@######@@#@##@+X",
"#ooooooooooooooooO+@@@++O@@++OOO",
"@ooooooooooooooooooO+OOO++OO++OX",
"@ooooooooooooooooooooo+OO+++OOOX",
"#@oooooooooooooooooooooooOOO+++O",
"OOooooooooooooooooooooooooo@@@OO",
"@+ooooooooooooooooooooooooooo+OX",
"   oooooooooooooooooooooooooooo ",
"@+Ooooooooooooooooooooooooooooo#",
"+@@+ooooooooooooooooooooooooooOO",
"OO+++ooooooooooooooooooooooooO++",
"@+++@@ooooooooooooooooooooooO+@@",
"+OOO+++ooooooooooooooooooooXXO++",
"++OXXOO+ooooooooooooooooooOO++OO",
"OOOOOO+OO+ooooooooooooooOOOOOOOX",
" ....      .Xoooooooo  .        "
};
