/* XPM */
static char *result[] = {
/* columns rows colors chars-per-pixel */
"32 32 8 1 ",
"  c #67502C",
". c #7E6237",
"X c #967441",
"o c yellow",
"O c #9F844D",
"+ c #AF8F55",
"@ c #B8945F",
"# c #C29D62",
/* pixels */
"@#@@@######oooooooo#########@#@X",
"@+++++++oooooooooooooo@@@+@@@+OO",
"@@@+OOooooooooooooooooooOO++OOOX",
"@+OO+oooooooooooooooooooo@@@@@+O",
"+@@@ooooooooooooooooooooooOO+@@X",
"@@@oooooooooooooooooooooooo@@+OX",
"OOooooooooooooooooooooooooooO++X",
".oooooooooooooooooooooooooooo   ",
"@ooooooooooooooooooooooooooooOO@",
"+OOooooooooooooooooooooooooooo++",
"@++OOooooooooooooooooooooooooo@@",
"O+@@@@@ooooooooooooooooooooooo+O",
"OOOO++O@@+ooooooooooooooooooooo+",
"O+++OO++OOO+@ooooooooooooooooooO",
"OOO++@@++++OOOOooooooooooooooooO",
"   .X..XXX. .    oooooooooooooo ",
"@##@###@@++@##@@@ooooooooooooooX",
"#@++@@@@+OOO+++ooooooooooooooooO",
"@+OOOO+@@@@+OooooooooooooooooooX",
"@@@+@+OO@+oooooooooooooooooooooX",
"#@++OOOooooooooooooooooooooooo+O",
"OO+@@oooooooooooooooooooooooooOO",
"@+@oooooooooooooooooooooooooooOX",
" oooooooooooooooooooooooooooo   ",
"@oooooooooooooooooooooooooooo@##",
"+@oooooooooooooooooooooooooo+OOO",
"OO+ooooooooooooooooooooooooOOO++",
"@+++oooooooooooooooooooooo@+O+@@",
"+OOO+ooooooooooooooooooooOXXXO++",
"++OXXOooooooooooooooooooOXOO++OO",
"OOOOOO+OooooooooooooooOOOOOOOOOX",
" ....      oooooooo.   .        "
};
