/* XPM */
static char *result[] = {
/* columns rows colors chars-per-pixel */
"32 32 8 1 ",
"  c #67502C",
". c #7E6237",
"X c #967441",
"o c yellow",
"O c #9F844D",
"+ c #AF8F55",
"@ c #B8945F",
"# c #C29D62",
/* pixels */
"@#@@@#######oooooooo########@#@X",
"@+++++++Ooooooooooooooo@@+@@@+OO",
"@@@+OOOooooooooooooooooooO++OOOX",
"@+OO++oooooooooooooooooooo@@@@+O",
"+@@@@ooooooooooooooooooooooO+@@X",
"@@@+oooooooooooooooooooooooo@+OX",
"OOOoooooooooooooooooooooooooo++X",
".Xoooooooooooooooooooooooooooo  ",
"@@ooooooooooooooooooooooooooooO@",
"+oooooooooooooooooooooooooooooo+",
"@oooooooooooooooooooooooooooooo@",
"OooooooooooooooooooooooooooooooO",
"oooooooooooooooooooooooooooooooo",
"oooooooooooooooooooooooooooooooo",
"oooooooooooooooooooooooooooooooo",
"oooooooooooooooooooooooooooooooo",
"oooooooooooooooooooooooooooooooo",
"oooooooooooooooooooooooooooooooo",
"oooooooooooooooooooooooooooooooo",
"oooooooooooooooooooooooooooooooo",
"#ooooooooooooooooooooooooooooooO",
"OooooooooooooooooooooooooooooooO",
"@ooooooooooooooooooooooooooooooX",
"  oooooooooooooooooooooooooooo  ",
"@+oooooooooooooooooooooooooooo##",
"+@@ooooooooooooooooooooooooooOOO",
"OO++ooooooooooooooooooooooooOO++",
"@+++@oooooooooooooooooooooo+O+@@",
"+OOO++ooooooooooooooooooooXXXO++",
"++OXXOOooooooooooooooooooXOO++OO",
"OOOOOO+OOooooooooooooooOOOOOOOOX",
" ....      .oooooooo   .        "
};
